<svg xmlns="http://www.w3.org/2000/svg" viewBox="0 0 1300 400" role="img">
<title>NWKRTC Airavat Gold Class coach, side profile</title>
<!-- Drawn from a Wikimedia Commons reference photograph. Volvo multi-axle high-floor coach: yellow with a blue and white wave rising along the flank, luggage bays under the floor, green curtains in the windows. -->
<rect x="80" y="378" width="1140" height="9" rx="4.5" fill="#171815" fill-opacity="0.13"/>
<path d="M170,22H1224a26,26 0 0 1 26,26V352H50V242L62,112Q74,22 170,22Z" fill="#f4c51c"/>
<path d="M170,22H1224a26,26 0 0 1 26,26v5H76Q94,24 170,22Z" fill="#f9d64a"/>
<path d="M50,242L62,112Q74,22 170,22h6V352H50Z" fill="#d7a90f"/>
<rect x="50" y="342" width="1200" height="10" fill="#b58d08"/>
<rect x="470" y="244" width="190" height="84" rx="4" fill="none" stroke="#d7a90f" stroke-width="3"/>
<rect x="626" y="282" width="20" height="8" rx="3" fill="#d7a90f"/>
<rect x="670" y="244" width="190" height="84" rx="4" fill="none" stroke="#d7a90f" stroke-width="3"/>
<rect x="826" y="282" width="20" height="8" rx="3" fill="#d7a90f"/>
<path d="M50,304C350,304 630,316 790,286S1000,258 1060,240" fill="none" stroke="#1f4fb4" stroke-width="30" stroke-linecap="round"/>
<path d="M50,332C350,332 630,344 790,314S1000,286 1060,268" fill="none" stroke="#f7f5f0" stroke-width="12" stroke-linecap="round"/>
<path d="M50,354C350,354 630,366 790,336S1000,308 1060,290" fill="none" stroke="#4d8ad9" stroke-width="18" stroke-linecap="round"/>
<circle cx="1090" cy="220" r="9" fill="#1f4fb4"/>
<circle cx="1112" cy="208" r="6" fill="#1f4fb4"/>
<circle cx="1126" cy="226" r="5" fill="#1f4fb4"/>
<circle cx="1140" cy="216" r="4" fill="#1f4fb4"/>
<circle cx="1102" cy="240" r="5" fill="#1f4fb4"/>
<circle cx="1122" cy="244" r="3" fill="#1f4fb4"/>
<rect x="610" y="236" width="220" height="16" rx="8" transform="skewX(-14)" fill="#1f4fb4"/>
<rect x="690" y="258" width="90" height="6" rx="3" transform="skewX(-14)" fill="#b58d08"/>
<circle cx="380" cy="254" r="12" fill="none" stroke="#b58d08" stroke-width="4"/>
<rect x="106" y="68" width="1118" height="154" rx="8" fill="#151614"/>
<path d="M60,114Q72,44 160,38H118v184H54Z" fill="#151614"/>
<path d="M66,116Q78,56 112,50v156H60Z" fill="#222b33"/>
<path d="M66,116Q78,56 112,50v70H60Z" fill="#ffffff" fill-opacity="0.07"/>
<rect x="74" y="62" width="34" height="12" rx="2" fill="#ff8a1f"/>
<rect x="120" y="92" width="72" height="122" rx="4" fill="#222b33"/>
<rect x="120" y="92" width="72" height="51.2" fill="#ffffff" fill-opacity="0.07"/>
<rect x="200" y="84" width="106" height="254" rx="5" fill="#151614"/>
<rect x="206" y="92" width="94" height="176" rx="4" fill="#222b33"/>
<rect x="206" y="92" width="94" height="73.9" fill="#ffffff" fill-opacity="0.07"/>
<rect x="206" y="274" width="94" height="60" rx="3" fill="#d7a90f"/>
<rect x="314" y="92" width="144.33333333333334" height="122" rx="4" fill="#222b33"/>
<rect x="320" y="96" width="14" height="114" rx="2" fill="#5aa552"/>
<rect x="334" y="96" width="9" height="114" rx="2" fill="#3f8a3c"/>
<rect x="343" y="96" width="14" height="114" rx="2" fill="#5aa552"/>
<rect x="357" y="96" width="9" height="114" rx="2" fill="#3f8a3c"/>
<rect x="366" y="96" width="14" height="114" rx="2" fill="#5aa552"/>
<rect x="380" y="96" width="9" height="114" rx="2" fill="#3f8a3c"/>
<rect x="389" y="96" width="14" height="114" rx="2" fill="#5aa552"/>
<rect x="403" y="96" width="9" height="114" rx="2" fill="#3f8a3c"/>
<rect x="412" y="96" width="14" height="114" rx="2" fill="#5aa552"/>
<rect x="426" y="96" width="9" height="114" rx="2" fill="#3f8a3c"/>
<rect x="320" y="96" width="108.33333333333334" height="6" rx="2" fill="#3f8a3c"/>
<rect x="314" y="92" width="144.33333333333334" height="51.2" fill="#ffffff" fill-opacity="0.07"/>
<rect x="466.33333333333337" y="92" width="144.33333333333334" height="122" rx="4" fill="#222b33"/>
<rect x="472.33333333333337" y="96" width="14" height="114" rx="2" fill="#5aa552"/>
<rect x="486.33333333333337" y="96" width="9" height="114" rx="2" fill="#3f8a3c"/>
<rect x="495.33333333333337" y="96" width="14" height="114" rx="2" fill="#5aa552"/>
<rect x="509.33333333333337" y="96" width="9" height="114" rx="2" fill="#3f8a3c"/>
<rect x="518.3333333333334" y="96" width="14" height="114" rx="2" fill="#5aa552"/>
<rect x="532.3333333333334" y="96" width="9" height="114" rx="2" fill="#3f8a3c"/>
<rect x="541.3333333333334" y="96" width="14" height="114" rx="2" fill="#5aa552"/>
<rect x="555.3333333333334" y="96" width="9" height="114" rx="2" fill="#3f8a3c"/>
<rect x="564.3333333333334" y="96" width="14" height="114" rx="2" fill="#5aa552"/>
<rect x="578.3333333333334" y="96" width="9" height="114" rx="2" fill="#3f8a3c"/>
<rect x="472.33333333333337" y="96" width="108.33333333333334" height="6" rx="2" fill="#3f8a3c"/>
<rect x="466.33333333333337" y="92" width="144.33333333333334" height="51.2" fill="#ffffff" fill-opacity="0.07"/>
<rect x="618.6666666666667" y="92" width="144.33333333333334" height="122" rx="4" fill="#222b33"/>
<rect x="624.6666666666667" y="96" width="14" height="114" rx="2" fill="#5aa552"/>
<rect x="638.6666666666667" y="96" width="9" height="114" rx="2" fill="#3f8a3c"/>
<rect x="647.6666666666667" y="96" width="14" height="114" rx="2" fill="#5aa552"/>
<rect x="661.6666666666667" y="96" width="9" height="114" rx="2" fill="#3f8a3c"/>
<rect x="670.6666666666667" y="96" width="14" height="114" rx="2" fill="#5aa552"/>
<rect x="684.6666666666667" y="96" width="9" height="114" rx="2" fill="#3f8a3c"/>
<rect x="693.6666666666667" y="96" width="14" height="114" rx="2" fill="#5aa552"/>
<rect x="707.6666666666667" y="96" width="9" height="114" rx="2" fill="#3f8a3c"/>
<rect x="716.6666666666667" y="96" width="14" height="114" rx="2" fill="#5aa552"/>
<rect x="730.6666666666667" y="96" width="9" height="114" rx="2" fill="#3f8a3c"/>
<rect x="624.6666666666667" y="96" width="108.33333333333334" height="6" rx="2" fill="#3f8a3c"/>
<rect x="618.6666666666667" y="92" width="144.33333333333334" height="51.2" fill="#ffffff" fill-opacity="0.07"/>
<rect x="771" y="92" width="144.33333333333334" height="122" rx="4" fill="#222b33"/>
<rect x="777" y="96" width="14" height="114" rx="2" fill="#5aa552"/>
<rect x="791" y="96" width="9" height="114" rx="2" fill="#3f8a3c"/>
<rect x="800" y="96" width="14" height="114" rx="2" fill="#5aa552"/>
<rect x="814" y="96" width="9" height="114" rx="2" fill="#3f8a3c"/>
<rect x="823" y="96" width="14" height="114" rx="2" fill="#5aa552"/>
<rect x="837" y="96" width="9" height="114" rx="2" fill="#3f8a3c"/>
<rect x="846" y="96" width="14" height="114" rx="2" fill="#5aa552"/>
<rect x="860" y="96" width="9" height="114" rx="2" fill="#3f8a3c"/>
<rect x="869" y="96" width="14" height="114" rx="2" fill="#5aa552"/>
<rect x="883" y="96" width="9" height="114" rx="2" fill="#3f8a3c"/>
<rect x="777" y="96" width="108.33333333333334" height="6" rx="2" fill="#3f8a3c"/>
<rect x="771" y="92" width="144.33333333333334" height="51.2" fill="#ffffff" fill-opacity="0.07"/>
<rect x="923.3333333333334" y="92" width="144.33333333333334" height="122" rx="4" fill="#222b33"/>
<rect x="929.3333333333334" y="96" width="14" height="114" rx="2" fill="#5aa552"/>
<rect x="943.3333333333334" y="96" width="9" height="114" rx="2" fill="#3f8a3c"/>
<rect x="952.3333333333334" y="96" width="14" height="114" rx="2" fill="#5aa552"/>
<rect x="966.3333333333334" y="96" width="9" height="114" rx="2" fill="#3f8a3c"/>
<rect x="975.3333333333334" y="96" width="14" height="114" rx="2" fill="#5aa552"/>
<rect x="989.3333333333334" y="96" width="9" height="114" rx="2" fill="#3f8a3c"/>
<rect x="998.3333333333334" y="96" width="14" height="114" rx="2" fill="#5aa552"/>
<rect x="1012.3333333333334" y="96" width="9" height="114" rx="2" fill="#3f8a3c"/>
<rect x="1021.3333333333334" y="96" width="14" height="114" rx="2" fill="#5aa552"/>
<rect x="1035.3333333333335" y="96" width="9" height="114" rx="2" fill="#3f8a3c"/>
<rect x="929.3333333333334" y="96" width="108.33333333333334" height="6" rx="2" fill="#3f8a3c"/>
<rect x="923.3333333333334" y="92" width="144.33333333333334" height="51.2" fill="#ffffff" fill-opacity="0.07"/>
<rect x="1075.6666666666667" y="92" width="144.33333333333334" height="122" rx="4" fill="#222b33"/>
<rect x="1081.6666666666667" y="96" width="14" height="114" rx="2" fill="#5aa552"/>
<rect x="1095.6666666666667" y="96" width="9" height="114" rx="2" fill="#3f8a3c"/>
<rect x="1104.6666666666667" y="96" width="14" height="114" rx="2" fill="#5aa552"/>
<rect x="1118.6666666666667" y="96" width="9" height="114" rx="2" fill="#3f8a3c"/>
<rect x="1127.6666666666667" y="96" width="14" height="114" rx="2" fill="#5aa552"/>
<rect x="1141.6666666666667" y="96" width="9" height="114" rx="2" fill="#3f8a3c"/>
<rect x="1150.6666666666667" y="96" width="14" height="114" rx="2" fill="#5aa552"/>
<rect x="1164.6666666666667" y="96" width="9" height="114" rx="2" fill="#3f8a3c"/>
<rect x="1173.6666666666667" y="96" width="14" height="114" rx="2" fill="#5aa552"/>
<rect x="1187.6666666666667" y="96" width="9" height="114" rx="2" fill="#3f8a3c"/>
<rect x="1081.6666666666667" y="96" width="108.33333333333334" height="6" rx="2" fill="#3f8a3c"/>
<rect x="1075.6666666666667" y="92" width="144.33333333333334" height="51.2" fill="#ffffff" fill-opacity="0.07"/>
<path d="M262,352V327a68,68 0 0 1 136,0V352Z" fill="#151614"/>
<path d="M872,352V327a68,68 0 0 1 136,0V352Z" fill="#151614"/>
<path d="M1007,352V327a68,68 0 0 1 136,0V352Z" fill="#151614"/>
<circle cx="330" cy="327" r="55" fill="#24251f"/><circle cx="330" cy="327" r="47.3" fill="#35362f"/><circle cx="330" cy="327" r="34.1" fill="#c9c6bd"/><circle cx="330" cy="327" r="25.3" fill="#a09d95"/><circle cx="330" cy="327" r="11" fill="#6b6963"/><circle cx="330" cy="327" r="4.4" fill="#3f3e39"/><circle cx="343.3" cy="334.7" r="2.8" fill="#3f3e39"/><circle cx="330" cy="342.4" r="2.8" fill="#3f3e39"/><circle cx="316.7" cy="334.7" r="2.8" fill="#3f3e39"/><circle cx="316.7" cy="319.3" r="2.8" fill="#3f3e39"/><circle cx="330" cy="311.6" r="2.8" fill="#3f3e39"/><circle cx="343.3" cy="319.3" r="2.8" fill="#3f3e39"/>
<circle cx="940" cy="327" r="55" fill="#24251f"/><circle cx="940" cy="327" r="47.3" fill="#35362f"/><circle cx="940" cy="327" r="34.1" fill="#c9c6bd"/><circle cx="940" cy="327" r="25.3" fill="#a09d95"/><circle cx="940" cy="327" r="11" fill="#6b6963"/><circle cx="940" cy="327" r="4.4" fill="#3f3e39"/><circle cx="953.3" cy="334.7" r="2.8" fill="#3f3e39"/><circle cx="940" cy="342.4" r="2.8" fill="#3f3e39"/><circle cx="926.7" cy="334.7" r="2.8" fill="#3f3e39"/><circle cx="926.7" cy="319.3" r="2.8" fill="#3f3e39"/><circle cx="940" cy="311.6" r="2.8" fill="#3f3e39"/><circle cx="953.3" cy="319.3" r="2.8" fill="#3f3e39"/>
<circle cx="1075" cy="327" r="55" fill="#24251f"/><circle cx="1075" cy="327" r="47.3" fill="#35362f"/><circle cx="1075" cy="327" r="34.1" fill="#c9c6bd"/><circle cx="1075" cy="327" r="25.3" fill="#a09d95"/><circle cx="1075" cy="327" r="11" fill="#6b6963"/><circle cx="1075" cy="327" r="4.4" fill="#3f3e39"/><circle cx="1088.3" cy="334.7" r="2.8" fill="#3f3e39"/><circle cx="1075" cy="342.4" r="2.8" fill="#3f3e39"/><circle cx="1061.7" cy="334.7" r="2.8" fill="#3f3e39"/><circle cx="1061.7" cy="319.3" r="2.8" fill="#3f3e39"/><circle cx="1075" cy="311.6" r="2.8" fill="#3f3e39"/><circle cx="1088.3" cy="319.3" r="2.8" fill="#3f3e39"/>
<rect x="52" y="260" width="10" height="30" rx="4" fill="#d9d7cf"/>
<rect x="52" y="232" width="8" height="16" rx="3" fill="#f39a1e"/>
<rect x="1238" y="242" width="10" height="34" rx="4" fill="#d92c2c"/>
<rect x="1238" y="280" width="10" height="16" rx="3" fill="#f39a1e"/>
<rect x="1238" y="302" width="10" height="12" rx="3" fill="#d9d7cf"/>
<rect x="20" y="88" width="52" height="6" rx="3" fill="#151614"/>
<rect x="8" y="84" width="18" height="78" rx="6" fill="#d7a90f"/>
<rect x="10" y="88" width="12" height="68" rx="4" fill="#222b33"/>
</svg>
